<?xml version="1.0" encoding="UTF-8" standalone="no"?>
<svg
   width="64"
   height="64"
   viewBox="0 0 24 24"
   fill="none"
   stroke="#605c5c"
   stroke-width="2"
   stroke-linecap="round"
   stroke-linejoin="round"
   class="lucide lucide-binoculars-icon lucide-binoculars"
   version="1.1"
   id="svg6"
   xmlns:xlink="http://www.w3.org/1999/xlink"
   xmlns="http://www.w3.org/2000/svg"
   xmlns:svg="http://www.w3.org/2000/svg">
  <defs
     id="defs6">
    <linearGradient
       xlink:href="#linearGradient1"
       id="linearGradient2"
       x1="0"
       y1="128"
       x2="110"
       y2="18"
       gradientUnits="userSpaceOnUse" />
    <linearGradient
       id="linearGradient1">
      <stop
         style="stop-color:#f9a8d4;stop-opacity:0.7764706;"
         offset="0"
         id="stop1" />
      <stop
         style="stop-color:#fdba74;stop-opacity:0.90196079;"
         offset="1"
         id="stop9" />
    </linearGradient>
  </defs>
  <g
     id="layer3">
    <path
       style="fill:url(#linearGradient2);fill-opacity:1;stroke:#1a2229;stroke-width:0;stroke-linecap:round;stroke-linejoin:round"
       id="rect2"
       width="128"
       height="128"
       x="0"
       y="0"
       d="m 25,0 h 78 a 25,25 45 0 1 25,25 v 78 a 25,25 135 0 1 -25,25 H 25 A 25,25 45 0 1 0,103 V 25 A 25,25 135 0 1 25,0 Z"
       transform="scale(0.1875)" />
    <path
       style="fill:#000000;fill-opacity:0.15;stroke:#1a2229;stroke-width:0;stroke-linecap:round;stroke-linejoin:round"
       id="path9"
       width="128"
       height="128"
       x="0"
       y="0"
       d="m 25,0 h 78 a 25,25 45 0 1 25,25 v 78 a 25,25 135 0 1 -25,25 H 25 A 25,25 45 0 1 0,103 V 25 A 25,25 135 0 1 25,0 Z"
       transform="scale(0.1875)" />
  </g>
  <g
     id="layer2">
    <text
       xml:space="preserve"
       style="font-style:normal;font-variant:normal;font-weight:normal;font-stretch:normal;font-size:3.94972px;line-height:0;font-family:Minecraftia;-inkscape-font-specification:'Minecraftia, Normal';font-variant-ligatures:normal;font-variant-caps:normal;font-variant-numeric:normal;font-variant-east-asian:normal;text-align:start;writing-mode:lr-tb;direction:ltr;text-anchor:start;fill:#1a2229;fill-opacity:1;stroke:#1a2229;stroke-width:0.320308;stroke-linecap:round;stroke-linejoin:round;stroke-dasharray:none;stroke-opacity:1"
       x="1.1382701"
       y="15.94972"
       id="text1"><tspan
         id="tspan2"
         x="1.1382701"
         y="15.94972"
         style="fill:#1a2229;fill-opacity:1;stroke:#1a2229;stroke-width:0.320308;stroke-dasharray:none;stroke-opacity:1">/playtime</tspan></text>
  </g>
</svg>
